# xmcd CD database file generated by Grip 3.0.7
#
# Track frame offsets:
#       183
#       13830
#       29025
#       45545
#       63128
#       80628
#       104955
#       124008
#       138150
#       150433
#
# Disc length: 2326 seconds
#
# Revision: 3
# Processed by: cddbd v1.5PL3 Copyright (c) Steve Scherf et al.
# Submitted via: Grip 3.0.7
#
DISCID=8309140a
DTITLE=Status Quo - On The Level
DYEAR=1975
DGENRE=rock
TTITLE0=Little Lady
TTITLE1=Most Of The Time
TTITLE2=I Saw The Light
TTITLE3=Over And Done
TTITLE4=Nightride
TTITLE5=Down Down
TTITLE6=Broken Man
TTITLE7=What To Do
TTITLE8=Where I Am
TTITLE9=Bye Bye Johnny
EXTD=
EXTT0=
EXTT1=
EXTT2=
EXTT3=
EXTT4=
EXTT5=
EXTT6=
EXTT7=
EXTT8=
EXTT9=
PLAYORDER=
